<mxfile host="Electron" modified="2024-02-14T19:56:15.799Z" agent="Mozilla/5.0 (X11; Linux x86_64) AppleWebKit/537.36 (KHTML, like Gecko) draw.io/23.0.2 Chrome/120.0.6099.109 Electron/28.1.0 Safari/537.36" etag="lL4f_a0bqc-88j6sdFXx" version="23.0.2" type="device" pages="5">
  <diagram name="Date" id="RfCf_RQFFFm4Sb2Mfn2C">
    <mxGraphModel dx="6077" dy="2850" grid="1" gridSize="10" guides="1" tooltips="1" connect="1" arrows="1" fold="1" page="1" pageScale="1" pageWidth="827" pageHeight="1169" math="0" shadow="0">
      <root>
        <mxCell id="0" />
        <mxCell id="1" parent="0" />
        <mxCell id="sR1aym9AZOEBug6Cj8H3-11" style="edgeStyle=orthogonalEdgeStyle;rounded=0;orthogonalLoop=1;jettySize=auto;html=1;exitX=0.5;exitY=0;exitDx=0;exitDy=0;entryX=0;entryY=0.5;entryDx=0;entryDy=0;fontSize=20;curved=1;" parent="1" source="sR1aym9AZOEBug6Cj8H3-1" target="sR1aym9AZOEBug6Cj8H3-5" edge="1">
          <mxGeometry relative="1" as="geometry" />
        </mxCell>
        <mxCell id="sR1aym9AZOEBug6Cj8H3-30" value="0" style="edgeLabel;html=1;align=center;verticalAlign=middle;resizable=0;points=[];fontSize=20;" parent="sR1aym9AZOEBug6Cj8H3-11" vertex="1" connectable="0">
          <mxGeometry x="0.501" y="2" relative="1" as="geometry">
            <mxPoint as="offset" />
          </mxGeometry>
        </mxCell>
        <mxCell id="sR1aym9AZOEBug6Cj8H3-14" style="edgeStyle=orthogonalEdgeStyle;rounded=0;orthogonalLoop=1;jettySize=auto;html=1;exitX=0.5;exitY=1;exitDx=0;exitDy=0;entryX=0;entryY=0.5;entryDx=0;entryDy=0;fontSize=20;curved=1;" parent="1" source="sR1aym9AZOEBug6Cj8H3-1" target="sR1aym9AZOEBug6Cj8H3-7" edge="1">
          <mxGeometry relative="1" as="geometry" />
        </mxCell>
        <mxCell id="sR1aym9AZOEBug6Cj8H3-28" value="2" style="edgeLabel;html=1;align=center;verticalAlign=middle;resizable=0;points=[];fontSize=20;" parent="sR1aym9AZOEBug6Cj8H3-14" vertex="1" connectable="0">
          <mxGeometry x="0.3103" y="1" relative="1" as="geometry">
            <mxPoint x="-29" y="1" as="offset" />
          </mxGeometry>
        </mxCell>
        <mxCell id="sR1aym9AZOEBug6Cj8H3-15" style="edgeStyle=orthogonalEdgeStyle;rounded=0;orthogonalLoop=1;jettySize=auto;html=1;exitX=0.5;exitY=0;exitDx=0;exitDy=0;entryX=0;entryY=0.5;entryDx=0;entryDy=0;fontSize=20;curved=1;" parent="1" source="sR1aym9AZOEBug6Cj8H3-1" target="sR1aym9AZOEBug6Cj8H3-6" edge="1">
          <mxGeometry relative="1" as="geometry" />
        </mxCell>
        <mxCell id="sR1aym9AZOEBug6Cj8H3-29" value="1" style="edgeLabel;html=1;align=center;verticalAlign=middle;resizable=0;points=[];fontSize=20;" parent="sR1aym9AZOEBug6Cj8H3-15" vertex="1" connectable="0">
          <mxGeometry x="0.3408" y="2" relative="1" as="geometry">
            <mxPoint as="offset" />
          </mxGeometry>
        </mxCell>
        <mxCell id="sR1aym9AZOEBug6Cj8H3-51" style="edgeStyle=orthogonalEdgeStyle;rounded=0;orthogonalLoop=1;jettySize=auto;html=1;exitX=0.5;exitY=1;exitDx=0;exitDy=0;entryX=0;entryY=0.5;entryDx=0;entryDy=0;fontSize=20;curved=1;" parent="1" source="sR1aym9AZOEBug6Cj8H3-1" target="sR1aym9AZOEBug6Cj8H3-50" edge="1">
          <mxGeometry relative="1" as="geometry" />
        </mxCell>
        <mxCell id="sR1aym9AZOEBug6Cj8H3-52" value="3" style="edgeLabel;html=1;align=center;verticalAlign=middle;resizable=0;points=[];fontSize=20;" parent="sR1aym9AZOEBug6Cj8H3-51" vertex="1" connectable="0">
          <mxGeometry x="-0.091" y="2" relative="1" as="geometry">
            <mxPoint as="offset" />
          </mxGeometry>
        </mxCell>
        <mxCell id="sR1aym9AZOEBug6Cj8H3-1" value="A0" style="ellipse;whiteSpace=wrap;html=1;aspect=fixed;fontSize=20;" parent="1" vertex="1">
          <mxGeometry x="-770" y="280" width="80" height="80" as="geometry" />
        </mxCell>
        <mxCell id="sR1aym9AZOEBug6Cj8H3-4" value="" style="group;fontSize=20;" parent="1" vertex="1" connectable="0">
          <mxGeometry x="1430" y="750" width="80" height="80" as="geometry" />
        </mxCell>
        <mxCell id="sR1aym9AZOEBug6Cj8H3-3" value="" style="ellipse;whiteSpace=wrap;html=1;aspect=fixed;fontSize=20;" parent="sR1aym9AZOEBug6Cj8H3-4" vertex="1">
          <mxGeometry width="80" height="80" as="geometry" />
        </mxCell>
        <mxCell id="sR1aym9AZOEBug6Cj8H3-2" value="A29" style="ellipse;whiteSpace=wrap;html=1;aspect=fixed;fontSize=20;" parent="sR1aym9AZOEBug6Cj8H3-4" vertex="1">
          <mxGeometry x="10" y="10" width="60" height="60" as="geometry" />
        </mxCell>
        <mxCell id="sR1aym9AZOEBug6Cj8H3-10" style="edgeStyle=orthogonalEdgeStyle;rounded=0;orthogonalLoop=1;jettySize=auto;html=1;exitX=1;exitY=0.5;exitDx=0;exitDy=0;entryX=0.5;entryY=0;entryDx=0;entryDy=0;fontSize=20;curved=1;" parent="1" source="sR1aym9AZOEBug6Cj8H3-5" target="sR1aym9AZOEBug6Cj8H3-9" edge="1">
          <mxGeometry relative="1" as="geometry" />
        </mxCell>
        <mxCell id="sR1aym9AZOEBug6Cj8H3-31" value="1..9" style="edgeLabel;html=1;align=center;verticalAlign=middle;resizable=0;points=[];fontSize=20;" parent="sR1aym9AZOEBug6Cj8H3-10" vertex="1" connectable="0">
          <mxGeometry x="-0.5666" y="1" relative="1" as="geometry">
            <mxPoint as="offset" />
          </mxGeometry>
        </mxCell>
        <mxCell id="sR1aym9AZOEBug6Cj8H3-5" value="A1" style="ellipse;whiteSpace=wrap;html=1;aspect=fixed;fontSize=20;" parent="1" vertex="1">
          <mxGeometry x="-590" width="80" height="80" as="geometry" />
        </mxCell>
        <mxCell id="sR1aym9AZOEBug6Cj8H3-17" style="edgeStyle=orthogonalEdgeStyle;rounded=0;orthogonalLoop=1;jettySize=auto;html=1;exitX=1;exitY=0.5;exitDx=0;exitDy=0;entryX=0;entryY=0.5;entryDx=0;entryDy=0;fontSize=20;curved=1;" parent="1" source="sR1aym9AZOEBug6Cj8H3-6" target="sR1aym9AZOEBug6Cj8H3-9" edge="1">
          <mxGeometry relative="1" as="geometry" />
        </mxCell>
        <mxCell id="sR1aym9AZOEBug6Cj8H3-32" value="0..9" style="edgeLabel;html=1;align=center;verticalAlign=middle;resizable=0;points=[];fontSize=20;" parent="sR1aym9AZOEBug6Cj8H3-17" vertex="1" connectable="0">
          <mxGeometry x="-0.2085" y="3" relative="1" as="geometry">
            <mxPoint as="offset" />
          </mxGeometry>
        </mxCell>
        <mxCell id="sR1aym9AZOEBug6Cj8H3-6" value="A2" style="ellipse;whiteSpace=wrap;html=1;aspect=fixed;fontSize=20;" parent="1" vertex="1">
          <mxGeometry x="-590" y="170" width="80" height="80" as="geometry" />
        </mxCell>
        <mxCell id="sR1aym9AZOEBug6Cj8H3-20" style="edgeStyle=orthogonalEdgeStyle;rounded=0;orthogonalLoop=1;jettySize=auto;html=1;exitX=0.5;exitY=1;exitDx=0;exitDy=0;entryX=0.5;entryY=0;entryDx=0;entryDy=0;fontSize=20;curved=1;" parent="1" source="sR1aym9AZOEBug6Cj8H3-7" target="sR1aym9AZOEBug6Cj8H3-18" edge="1">
          <mxGeometry relative="1" as="geometry" />
        </mxCell>
        <mxCell id="sR1aym9AZOEBug6Cj8H3-38" value="9" style="edgeLabel;html=1;align=center;verticalAlign=middle;resizable=0;points=[];fontSize=20;" parent="sR1aym9AZOEBug6Cj8H3-20" vertex="1" connectable="0">
          <mxGeometry x="-0.0533" y="-1" relative="1" as="geometry">
            <mxPoint as="offset" />
          </mxGeometry>
        </mxCell>
        <mxCell id="sR1aym9AZOEBug6Cj8H3-26" style="edgeStyle=orthogonalEdgeStyle;rounded=0;orthogonalLoop=1;jettySize=auto;html=1;exitX=0.5;exitY=0;exitDx=0;exitDy=0;entryX=0.5;entryY=1;entryDx=0;entryDy=0;fontSize=20;curved=1;" parent="1" source="sR1aym9AZOEBug6Cj8H3-7" target="sR1aym9AZOEBug6Cj8H3-9" edge="1">
          <mxGeometry relative="1" as="geometry" />
        </mxCell>
        <mxCell id="sR1aym9AZOEBug6Cj8H3-33" value="0..8" style="edgeLabel;html=1;align=center;verticalAlign=middle;resizable=0;points=[];fontSize=20;" parent="sR1aym9AZOEBug6Cj8H3-26" vertex="1" connectable="0">
          <mxGeometry x="0.08" y="1" relative="1" as="geometry">
            <mxPoint as="offset" />
          </mxGeometry>
        </mxCell>
        <mxCell id="sR1aym9AZOEBug6Cj8H3-7" value="A3" style="ellipse;whiteSpace=wrap;html=1;aspect=fixed;fontSize=20;" parent="1" vertex="1">
          <mxGeometry x="-590" y="340" width="80" height="80" as="geometry" />
        </mxCell>
        <mxCell id="sR1aym9AZOEBug6Cj8H3-90" style="edgeStyle=orthogonalEdgeStyle;rounded=0;orthogonalLoop=1;jettySize=auto;html=1;exitX=1;exitY=0.5;exitDx=0;exitDy=0;entryX=0;entryY=0.5;entryDx=0;entryDy=0;fontSize=20;curved=1;" parent="1" source="sR1aym9AZOEBug6Cj8H3-8" target="sR1aym9AZOEBug6Cj8H3-88" edge="1">
          <mxGeometry relative="1" as="geometry" />
        </mxCell>
        <mxCell id="sR1aym9AZOEBug6Cj8H3-93" value="0" style="edgeLabel;html=1;align=center;verticalAlign=middle;resizable=0;points=[];fontSize=20;" parent="sR1aym9AZOEBug6Cj8H3-90" vertex="1" connectable="0">
          <mxGeometry x="0.08" y="1" relative="1" as="geometry">
            <mxPoint as="offset" />
          </mxGeometry>
        </mxCell>
        <mxCell id="sR1aym9AZOEBug6Cj8H3-91" style="edgeStyle=orthogonalEdgeStyle;rounded=0;orthogonalLoop=1;jettySize=auto;html=1;exitX=0.5;exitY=1;exitDx=0;exitDy=0;entryX=0;entryY=0.5;entryDx=0;entryDy=0;fontSize=20;curved=1;" parent="1" source="sR1aym9AZOEBug6Cj8H3-8" target="sR1aym9AZOEBug6Cj8H3-89" edge="1">
          <mxGeometry relative="1" as="geometry" />
        </mxCell>
        <mxCell id="sR1aym9AZOEBug6Cj8H3-92" value="1" style="edgeLabel;html=1;align=center;verticalAlign=middle;resizable=0;points=[];fontSize=20;" parent="sR1aym9AZOEBug6Cj8H3-91" vertex="1" connectable="0">
          <mxGeometry x="0.4096" y="-1" relative="1" as="geometry">
            <mxPoint as="offset" />
          </mxGeometry>
        </mxCell>
        <mxCell id="sR1aym9AZOEBug6Cj8H3-8" value="A5" style="ellipse;whiteSpace=wrap;html=1;aspect=fixed;fontSize=20;" parent="1" vertex="1">
          <mxGeometry x="-210" y="170" width="80" height="80" as="geometry" />
        </mxCell>
        <mxCell id="sR1aym9AZOEBug6Cj8H3-21" style="edgeStyle=orthogonalEdgeStyle;rounded=0;orthogonalLoop=1;jettySize=auto;html=1;exitX=1;exitY=0.5;exitDx=0;exitDy=0;entryX=0;entryY=0.5;entryDx=0;entryDy=0;fontSize=20;curved=1;" parent="1" source="sR1aym9AZOEBug6Cj8H3-9" target="sR1aym9AZOEBug6Cj8H3-8" edge="1">
          <mxGeometry relative="1" as="geometry" />
        </mxCell>
        <mxCell id="sR1aym9AZOEBug6Cj8H3-34" value="\" style="edgeLabel;html=1;align=center;verticalAlign=middle;resizable=0;points=[];fontSize=20;" parent="sR1aym9AZOEBug6Cj8H3-21" vertex="1" connectable="0">
          <mxGeometry x="-0.1746" y="3" relative="1" as="geometry">
            <mxPoint as="offset" />
          </mxGeometry>
        </mxCell>
        <mxCell id="sR1aym9AZOEBug6Cj8H3-9" value="A4" style="ellipse;whiteSpace=wrap;html=1;aspect=fixed;fontSize=20;" parent="1" vertex="1">
          <mxGeometry x="-416" y="170" width="80" height="80" as="geometry" />
        </mxCell>
        <mxCell id="sR1aym9AZOEBug6Cj8H3-40" style="edgeStyle=orthogonalEdgeStyle;rounded=0;orthogonalLoop=1;jettySize=auto;html=1;exitX=1;exitY=0.5;exitDx=0;exitDy=0;entryX=0;entryY=0.5;entryDx=0;entryDy=0;fontSize=20;curved=1;" parent="1" source="sR1aym9AZOEBug6Cj8H3-18" target="sR1aym9AZOEBug6Cj8H3-39" edge="1">
          <mxGeometry relative="1" as="geometry" />
        </mxCell>
        <mxCell id="sR1aym9AZOEBug6Cj8H3-41" value="\" style="edgeLabel;html=1;align=center;verticalAlign=middle;resizable=0;points=[];fontSize=20;" parent="sR1aym9AZOEBug6Cj8H3-40" vertex="1" connectable="0">
          <mxGeometry x="0.1745" y="-2" relative="1" as="geometry">
            <mxPoint x="2" y="-2" as="offset" />
          </mxGeometry>
        </mxCell>
        <mxCell id="sR1aym9AZOEBug6Cj8H3-18" value="A8" style="ellipse;whiteSpace=wrap;html=1;aspect=fixed;fontSize=20;" parent="1" vertex="1">
          <mxGeometry x="-416" y="510" width="80" height="80" as="geometry" />
        </mxCell>
        <mxCell id="sR1aym9AZOEBug6Cj8H3-46" style="edgeStyle=orthogonalEdgeStyle;rounded=0;orthogonalLoop=1;jettySize=auto;html=1;exitX=1;exitY=0.5;exitDx=0;exitDy=0;entryX=0;entryY=0.5;entryDx=0;entryDy=0;fontSize=20;curved=1;" parent="1" source="sR1aym9AZOEBug6Cj8H3-39" target="sR1aym9AZOEBug6Cj8H3-42" edge="1">
          <mxGeometry relative="1" as="geometry" />
        </mxCell>
        <mxCell id="sR1aym9AZOEBug6Cj8H3-69" value="0" style="edgeLabel;html=1;align=center;verticalAlign=middle;resizable=0;points=[];fontSize=20;" parent="sR1aym9AZOEBug6Cj8H3-46" vertex="1" connectable="0">
          <mxGeometry x="-0.0959" relative="1" as="geometry">
            <mxPoint as="offset" />
          </mxGeometry>
        </mxCell>
        <mxCell id="sR1aym9AZOEBug6Cj8H3-48" style="edgeStyle=orthogonalEdgeStyle;rounded=0;orthogonalLoop=1;jettySize=auto;html=1;exitX=0.5;exitY=1;exitDx=0;exitDy=0;entryX=0;entryY=0.5;entryDx=0;entryDy=0;fontSize=20;curved=1;" parent="1" source="sR1aym9AZOEBug6Cj8H3-39" target="sR1aym9AZOEBug6Cj8H3-45" edge="1">
          <mxGeometry relative="1" as="geometry" />
        </mxCell>
        <mxCell id="sR1aym9AZOEBug6Cj8H3-82" value="1" style="edgeLabel;html=1;align=center;verticalAlign=middle;resizable=0;points=[];fontSize=20;" parent="sR1aym9AZOEBug6Cj8H3-48" vertex="1" connectable="0">
          <mxGeometry x="0.576" y="-1" relative="1" as="geometry">
            <mxPoint as="offset" />
          </mxGeometry>
        </mxCell>
        <mxCell id="sR1aym9AZOEBug6Cj8H3-39" value="A9" style="ellipse;whiteSpace=wrap;html=1;aspect=fixed;fontSize=20;" parent="1" vertex="1">
          <mxGeometry x="-210" y="510" width="80" height="80" as="geometry" />
        </mxCell>
        <mxCell id="sR1aym9AZOEBug6Cj8H3-96" style="edgeStyle=orthogonalEdgeStyle;rounded=0;orthogonalLoop=1;jettySize=auto;html=1;exitX=1;exitY=0.5;exitDx=0;exitDy=0;entryX=0.5;entryY=0;entryDx=0;entryDy=0;fontSize=20;curved=1;" parent="1" source="sR1aym9AZOEBug6Cj8H3-42" target="sR1aym9AZOEBug6Cj8H3-87" edge="1">
          <mxGeometry relative="1" as="geometry" />
        </mxCell>
        <mxCell id="sR1aym9AZOEBug6Cj8H3-104" value="1 | 3..9" style="edgeLabel;html=1;align=center;verticalAlign=middle;resizable=0;points=[];fontSize=20;" parent="sR1aym9AZOEBug6Cj8H3-96" vertex="1" connectable="0">
          <mxGeometry x="-0.6461" y="-2" relative="1" as="geometry">
            <mxPoint x="-1" as="offset" />
          </mxGeometry>
        </mxCell>
        <mxCell id="sR1aym9AZOEBug6Cj8H3-42" value="A10" style="ellipse;whiteSpace=wrap;html=1;aspect=fixed;fontSize=20;" parent="1" vertex="1">
          <mxGeometry x="-60" y="510" width="80" height="80" as="geometry" />
        </mxCell>
        <mxCell id="sR1aym9AZOEBug6Cj8H3-97" style="edgeStyle=orthogonalEdgeStyle;rounded=0;orthogonalLoop=1;jettySize=auto;html=1;exitX=1;exitY=0.5;exitDx=0;exitDy=0;entryX=0.5;entryY=0;entryDx=0;entryDy=0;fontSize=20;curved=1;" parent="1" source="sR1aym9AZOEBug6Cj8H3-45" target="sR1aym9AZOEBug6Cj8H3-87" edge="1">
          <mxGeometry relative="1" as="geometry" />
        </mxCell>
        <mxCell id="sR1aym9AZOEBug6Cj8H3-105" value="0..2" style="edgeLabel;html=1;align=center;verticalAlign=middle;resizable=0;points=[];fontSize=20;" parent="sR1aym9AZOEBug6Cj8H3-97" vertex="1" connectable="0">
          <mxGeometry x="-0.2576" relative="1" as="geometry">
            <mxPoint x="-51" as="offset" />
          </mxGeometry>
        </mxCell>
        <mxCell id="sR1aym9AZOEBug6Cj8H3-45" value="A11" style="ellipse;whiteSpace=wrap;html=1;aspect=fixed;fontSize=20;" parent="1" vertex="1">
          <mxGeometry x="-60" y="690" width="80" height="80" as="geometry" />
        </mxCell>
        <mxCell id="sR1aym9AZOEBug6Cj8H3-57" style="edgeStyle=orthogonalEdgeStyle;rounded=0;orthogonalLoop=1;jettySize=auto;html=1;exitX=0.5;exitY=0;exitDx=0;exitDy=0;entryX=0.5;entryY=1;entryDx=0;entryDy=0;fontSize=20;curved=1;" parent="1" source="sR1aym9AZOEBug6Cj8H3-50" target="sR1aym9AZOEBug6Cj8H3-55" edge="1">
          <mxGeometry relative="1" as="geometry" />
        </mxCell>
        <mxCell id="sR1aym9AZOEBug6Cj8H3-59" value="0" style="edgeLabel;html=1;align=center;verticalAlign=middle;resizable=0;points=[];fontSize=20;" parent="sR1aym9AZOEBug6Cj8H3-57" vertex="1" connectable="0">
          <mxGeometry x="-0.1619" relative="1" as="geometry">
            <mxPoint as="offset" />
          </mxGeometry>
        </mxCell>
        <mxCell id="sR1aym9AZOEBug6Cj8H3-58" style="edgeStyle=orthogonalEdgeStyle;rounded=0;orthogonalLoop=1;jettySize=auto;html=1;exitX=0.5;exitY=1;exitDx=0;exitDy=0;entryX=0.5;entryY=0;entryDx=0;entryDy=0;fontSize=20;curved=1;" parent="1" source="sR1aym9AZOEBug6Cj8H3-50" target="sR1aym9AZOEBug6Cj8H3-56" edge="1">
          <mxGeometry relative="1" as="geometry" />
        </mxCell>
        <mxCell id="sR1aym9AZOEBug6Cj8H3-60" value="1" style="edgeLabel;html=1;align=center;verticalAlign=middle;resizable=0;points=[];fontSize=20;" parent="sR1aym9AZOEBug6Cj8H3-58" vertex="1" connectable="0">
          <mxGeometry x="0.4958" y="-1" relative="1" as="geometry">
            <mxPoint as="offset" />
          </mxGeometry>
        </mxCell>
        <mxCell id="sR1aym9AZOEBug6Cj8H3-50" value="A12" style="ellipse;whiteSpace=wrap;html=1;aspect=fixed;fontSize=20;" parent="1" vertex="1">
          <mxGeometry x="-590" y="1000" width="80" height="80" as="geometry" />
        </mxCell>
        <mxCell id="sR1aym9AZOEBug6Cj8H3-70" style="edgeStyle=orthogonalEdgeStyle;rounded=0;orthogonalLoop=1;jettySize=auto;html=1;exitX=1;exitY=0.5;exitDx=0;exitDy=0;entryX=0;entryY=0.5;entryDx=0;entryDy=0;fontSize=20;curved=1;" parent="1" source="sR1aym9AZOEBug6Cj8H3-55" target="sR1aym9AZOEBug6Cj8H3-62" edge="1">
          <mxGeometry relative="1" as="geometry" />
        </mxCell>
        <mxCell id="sR1aym9AZOEBug6Cj8H3-71" value="\" style="edgeLabel;html=1;align=center;verticalAlign=middle;resizable=0;points=[];fontSize=20;" parent="sR1aym9AZOEBug6Cj8H3-70" vertex="1" connectable="0">
          <mxGeometry x="-0.3913" relative="1" as="geometry">
            <mxPoint as="offset" />
          </mxGeometry>
        </mxCell>
        <mxCell id="sR1aym9AZOEBug6Cj8H3-55" value="A13" style="ellipse;whiteSpace=wrap;html=1;aspect=fixed;fontSize=20;" parent="1" vertex="1">
          <mxGeometry x="-416" y="850" width="80" height="80" as="geometry" />
        </mxCell>
        <mxCell id="sR1aym9AZOEBug6Cj8H3-65" style="edgeStyle=orthogonalEdgeStyle;rounded=0;orthogonalLoop=1;jettySize=auto;html=1;exitX=1;exitY=0.5;exitDx=0;exitDy=0;entryX=0;entryY=0.5;entryDx=0;entryDy=0;fontSize=20;curved=1;" parent="1" source="sR1aym9AZOEBug6Cj8H3-56" target="sR1aym9AZOEBug6Cj8H3-63" edge="1">
          <mxGeometry relative="1" as="geometry" />
        </mxCell>
        <mxCell id="sR1aym9AZOEBug6Cj8H3-72" value="\" style="edgeLabel;html=1;align=center;verticalAlign=middle;resizable=0;points=[];fontSize=20;" parent="sR1aym9AZOEBug6Cj8H3-65" vertex="1" connectable="0">
          <mxGeometry x="-0.1057" y="2" relative="1" as="geometry">
            <mxPoint as="offset" />
          </mxGeometry>
        </mxCell>
        <mxCell id="sR1aym9AZOEBug6Cj8H3-56" value="A17" style="ellipse;whiteSpace=wrap;html=1;aspect=fixed;fontSize=20;" parent="1" vertex="1">
          <mxGeometry x="-416" y="1190.27" width="80" height="80" as="geometry" />
        </mxCell>
        <mxCell id="sR1aym9AZOEBug6Cj8H3-78" style="edgeStyle=orthogonalEdgeStyle;rounded=0;orthogonalLoop=1;jettySize=auto;html=1;exitX=1;exitY=0.5;exitDx=0;exitDy=0;entryX=0;entryY=0.5;entryDx=0;entryDy=0;fontSize=20;curved=1;" parent="1" source="sR1aym9AZOEBug6Cj8H3-62" target="sR1aym9AZOEBug6Cj8H3-73" edge="1">
          <mxGeometry relative="1" as="geometry" />
        </mxCell>
        <mxCell id="sR1aym9AZOEBug6Cj8H3-83" value="0" style="edgeLabel;html=1;align=center;verticalAlign=middle;resizable=0;points=[];fontSize=20;" parent="sR1aym9AZOEBug6Cj8H3-78" vertex="1" connectable="0">
          <mxGeometry x="-0.1469" y="-1" relative="1" as="geometry">
            <mxPoint as="offset" />
          </mxGeometry>
        </mxCell>
        <mxCell id="sR1aym9AZOEBug6Cj8H3-81" style="edgeStyle=orthogonalEdgeStyle;rounded=0;orthogonalLoop=1;jettySize=auto;html=1;exitX=0.5;exitY=1;exitDx=0;exitDy=0;entryX=0;entryY=0.5;entryDx=0;entryDy=0;fontSize=20;curved=1;" parent="1" source="sR1aym9AZOEBug6Cj8H3-62" target="sR1aym9AZOEBug6Cj8H3-74" edge="1">
          <mxGeometry relative="1" as="geometry" />
        </mxCell>
        <mxCell id="sR1aym9AZOEBug6Cj8H3-84" value="1" style="edgeLabel;html=1;align=center;verticalAlign=middle;resizable=0;points=[];fontSize=20;" parent="sR1aym9AZOEBug6Cj8H3-81" vertex="1" connectable="0">
          <mxGeometry x="0.5531" y="-1" relative="1" as="geometry">
            <mxPoint as="offset" />
          </mxGeometry>
        </mxCell>
        <mxCell id="sR1aym9AZOEBug6Cj8H3-62" value="A14" style="ellipse;whiteSpace=wrap;html=1;aspect=fixed;fontSize=20;" parent="1" vertex="1">
          <mxGeometry x="-210" y="850" width="80" height="80" as="geometry" />
        </mxCell>
        <mxCell id="sR1aym9AZOEBug6Cj8H3-79" style="edgeStyle=orthogonalEdgeStyle;rounded=0;orthogonalLoop=1;jettySize=auto;html=1;exitX=1;exitY=0.5;exitDx=0;exitDy=0;entryX=0;entryY=0.5;entryDx=0;entryDy=0;fontSize=20;curved=1;" parent="1" source="sR1aym9AZOEBug6Cj8H3-63" target="sR1aym9AZOEBug6Cj8H3-75" edge="1">
          <mxGeometry relative="1" as="geometry" />
        </mxCell>
        <mxCell id="sR1aym9AZOEBug6Cj8H3-85" value="0" style="edgeLabel;html=1;align=center;verticalAlign=middle;resizable=0;points=[];fontSize=20;" parent="sR1aym9AZOEBug6Cj8H3-79" vertex="1" connectable="0">
          <mxGeometry x="-0.1469" y="-1" relative="1" as="geometry">
            <mxPoint as="offset" />
          </mxGeometry>
        </mxCell>
        <mxCell id="sR1aym9AZOEBug6Cj8H3-80" style="edgeStyle=orthogonalEdgeStyle;rounded=0;orthogonalLoop=1;jettySize=auto;html=1;exitX=0.5;exitY=1;exitDx=0;exitDy=0;entryX=0;entryY=0.5;entryDx=0;entryDy=0;fontSize=20;curved=1;" parent="1" source="sR1aym9AZOEBug6Cj8H3-63" target="sR1aym9AZOEBug6Cj8H3-76" edge="1">
          <mxGeometry relative="1" as="geometry" />
        </mxCell>
        <mxCell id="sR1aym9AZOEBug6Cj8H3-86" value="1" style="edgeLabel;html=1;align=center;verticalAlign=middle;resizable=0;points=[];fontSize=20;" parent="sR1aym9AZOEBug6Cj8H3-80" vertex="1" connectable="0">
          <mxGeometry x="0.5646" relative="1" as="geometry">
            <mxPoint as="offset" />
          </mxGeometry>
        </mxCell>
        <mxCell id="sR1aym9AZOEBug6Cj8H3-63" value="A18" style="ellipse;whiteSpace=wrap;html=1;aspect=fixed;fontSize=20;" parent="1" vertex="1">
          <mxGeometry x="-210" y="1190.27" width="80" height="80" as="geometry" />
        </mxCell>
        <mxCell id="sR1aym9AZOEBug6Cj8H3-98" style="edgeStyle=orthogonalEdgeStyle;rounded=0;orthogonalLoop=1;jettySize=auto;html=1;exitX=1;exitY=0.5;exitDx=0;exitDy=0;entryX=0.5;entryY=1;entryDx=0;entryDy=0;fontSize=20;curved=1;" parent="1" source="sR1aym9AZOEBug6Cj8H3-73" target="sR1aym9AZOEBug6Cj8H3-87" edge="1">
          <mxGeometry relative="1" as="geometry" />
        </mxCell>
        <mxCell id="sR1aym9AZOEBug6Cj8H3-106" value="1 | 3..9" style="edgeLabel;html=1;align=center;verticalAlign=middle;resizable=0;points=[];fontSize=20;" parent="sR1aym9AZOEBug6Cj8H3-98" vertex="1" connectable="0">
          <mxGeometry x="-0.3989" y="-1" relative="1" as="geometry">
            <mxPoint x="-9" y="-1" as="offset" />
          </mxGeometry>
        </mxCell>
        <mxCell id="sR1aym9AZOEBug6Cj8H3-73" value="A15" style="ellipse;whiteSpace=wrap;html=1;aspect=fixed;fontSize=20;" parent="1" vertex="1">
          <mxGeometry x="-60" y="850" width="80" height="80" as="geometry" />
        </mxCell>
        <mxCell id="sR1aym9AZOEBug6Cj8H3-99" style="edgeStyle=orthogonalEdgeStyle;rounded=0;orthogonalLoop=1;jettySize=auto;html=1;exitX=1;exitY=0.5;exitDx=0;exitDy=0;fontSize=20;curved=1;" parent="1" source="sR1aym9AZOEBug6Cj8H3-74" edge="1">
          <mxGeometry relative="1" as="geometry">
            <mxPoint x="440" y="850" as="targetPoint" />
          </mxGeometry>
        </mxCell>
        <mxCell id="sR1aym9AZOEBug6Cj8H3-107" value="0..2" style="edgeLabel;html=1;align=center;verticalAlign=middle;resizable=0;points=[];fontSize=20;" parent="sR1aym9AZOEBug6Cj8H3-99" vertex="1" connectable="0">
          <mxGeometry x="-0.56" y="-2" relative="1" as="geometry">
            <mxPoint as="offset" />
          </mxGeometry>
        </mxCell>
        <mxCell id="sR1aym9AZOEBug6Cj8H3-74" value="A16" style="ellipse;whiteSpace=wrap;html=1;aspect=fixed;fontSize=20;" parent="1" vertex="1">
          <mxGeometry x="-60" y="1030" width="80" height="80" as="geometry" />
        </mxCell>
        <mxCell id="sR1aym9AZOEBug6Cj8H3-100" style="edgeStyle=orthogonalEdgeStyle;rounded=0;orthogonalLoop=1;jettySize=auto;html=1;exitX=1;exitY=0.5;exitDx=0;exitDy=0;entryX=0.5;entryY=1;entryDx=0;entryDy=0;fontSize=20;curved=1;" parent="1" source="sR1aym9AZOEBug6Cj8H3-75" target="sR1aym9AZOEBug6Cj8H3-87" edge="1">
          <mxGeometry relative="1" as="geometry" />
        </mxCell>
        <mxCell id="sR1aym9AZOEBug6Cj8H3-108" value="1 | 3 | 5 | 7 | 8" style="edgeLabel;html=1;align=center;verticalAlign=middle;resizable=0;points=[];fontSize=20;" parent="sR1aym9AZOEBug6Cj8H3-100" vertex="1" connectable="0">
          <mxGeometry x="-0.6457" relative="1" as="geometry">
            <mxPoint as="offset" />
          </mxGeometry>
        </mxCell>
        <mxCell id="sR1aym9AZOEBug6Cj8H3-75" value="A19" style="ellipse;whiteSpace=wrap;html=1;aspect=fixed;fontSize=20;" parent="1" vertex="1">
          <mxGeometry x="-60" y="1190.27" width="80" height="80" as="geometry" />
        </mxCell>
        <mxCell id="sR1aym9AZOEBug6Cj8H3-101" style="edgeStyle=orthogonalEdgeStyle;rounded=0;orthogonalLoop=1;jettySize=auto;html=1;exitX=1;exitY=0.5;exitDx=0;exitDy=0;fontSize=20;curved=1;" parent="1" source="sR1aym9AZOEBug6Cj8H3-76" edge="1">
          <mxGeometry relative="1" as="geometry">
            <mxPoint x="440" y="850" as="targetPoint" />
          </mxGeometry>
        </mxCell>
        <mxCell id="sR1aym9AZOEBug6Cj8H3-109" value="0 | 2" style="edgeLabel;html=1;align=center;verticalAlign=middle;resizable=0;points=[];fontSize=20;" parent="sR1aym9AZOEBug6Cj8H3-101" vertex="1" connectable="0">
          <mxGeometry x="-0.718" y="1" relative="1" as="geometry">
            <mxPoint as="offset" />
          </mxGeometry>
        </mxCell>
        <mxCell id="sR1aym9AZOEBug6Cj8H3-76" value="A20" style="ellipse;whiteSpace=wrap;html=1;aspect=fixed;fontSize=20;" parent="1" vertex="1">
          <mxGeometry x="-60" y="1370.27" width="80" height="80" as="geometry" />
        </mxCell>
        <mxCell id="sR1aym9AZOEBug6Cj8H3-113" style="edgeStyle=orthogonalEdgeStyle;rounded=0;orthogonalLoop=1;jettySize=auto;html=1;exitX=1;exitY=0.5;exitDx=0;exitDy=0;entryX=0;entryY=0.5;entryDx=0;entryDy=0;fontSize=20;curved=1;" parent="1" source="sR1aym9AZOEBug6Cj8H3-87" target="sR1aym9AZOEBug6Cj8H3-110" edge="1">
          <mxGeometry relative="1" as="geometry" />
        </mxCell>
        <mxCell id="sR1aym9AZOEBug6Cj8H3-114" value="\" style="edgeLabel;html=1;align=center;verticalAlign=middle;resizable=0;points=[];fontSize=20;" parent="sR1aym9AZOEBug6Cj8H3-113" vertex="1" connectable="0">
          <mxGeometry x="0.07" y="-4" relative="1" as="geometry">
            <mxPoint x="-7" y="-4" as="offset" />
          </mxGeometry>
        </mxCell>
        <mxCell id="sR1aym9AZOEBug6Cj8H3-87" value="A21" style="ellipse;whiteSpace=wrap;html=1;aspect=fixed;fontSize=20;" parent="1" vertex="1">
          <mxGeometry x="400" y="770" width="80" height="80" as="geometry" />
        </mxCell>
        <mxCell id="sR1aym9AZOEBug6Cj8H3-94" style="edgeStyle=orthogonalEdgeStyle;rounded=0;orthogonalLoop=1;jettySize=auto;html=1;exitX=1;exitY=0.5;exitDx=0;exitDy=0;entryX=0.5;entryY=0;entryDx=0;entryDy=0;fontSize=20;curved=1;" parent="1" source="sR1aym9AZOEBug6Cj8H3-88" target="sR1aym9AZOEBug6Cj8H3-87" edge="1">
          <mxGeometry relative="1" as="geometry" />
        </mxCell>
        <mxCell id="sR1aym9AZOEBug6Cj8H3-102" value="1..9" style="edgeLabel;html=1;align=center;verticalAlign=middle;resizable=0;points=[];fontSize=20;" parent="sR1aym9AZOEBug6Cj8H3-94" vertex="1" connectable="0">
          <mxGeometry x="-0.7638" y="-4" relative="1" as="geometry">
            <mxPoint x="-1" y="-1" as="offset" />
          </mxGeometry>
        </mxCell>
        <mxCell id="sR1aym9AZOEBug6Cj8H3-88" value="A6" style="ellipse;whiteSpace=wrap;html=1;aspect=fixed;fontSize=20;" parent="1" vertex="1">
          <mxGeometry x="-60" y="170" width="80" height="80" as="geometry" />
        </mxCell>
        <mxCell id="sR1aym9AZOEBug6Cj8H3-95" style="edgeStyle=orthogonalEdgeStyle;rounded=0;orthogonalLoop=1;jettySize=auto;html=1;exitX=1;exitY=0.5;exitDx=0;exitDy=0;fontSize=20;curved=1;" parent="1" source="sR1aym9AZOEBug6Cj8H3-89" edge="1">
          <mxGeometry relative="1" as="geometry">
            <mxPoint x="440" y="770" as="targetPoint" />
          </mxGeometry>
        </mxCell>
        <mxCell id="sR1aym9AZOEBug6Cj8H3-103" value="0..2" style="edgeLabel;html=1;align=center;verticalAlign=middle;resizable=0;points=[];fontSize=20;" parent="sR1aym9AZOEBug6Cj8H3-95" vertex="1" connectable="0">
          <mxGeometry x="-0.7233" relative="1" as="geometry">
            <mxPoint x="-1" as="offset" />
          </mxGeometry>
        </mxCell>
        <mxCell id="sR1aym9AZOEBug6Cj8H3-89" value="A7" style="ellipse;whiteSpace=wrap;html=1;aspect=fixed;fontSize=20;" parent="1" vertex="1">
          <mxGeometry x="-60" y="350" width="80" height="80" as="geometry" />
        </mxCell>
        <mxCell id="sR1aym9AZOEBug6Cj8H3-115" style="edgeStyle=orthogonalEdgeStyle;rounded=0;orthogonalLoop=1;jettySize=auto;html=1;exitX=0.5;exitY=1;exitDx=0;exitDy=0;entryX=0;entryY=0.5;entryDx=0;entryDy=0;fontSize=20;curved=1;" parent="1" source="sR1aym9AZOEBug6Cj8H3-110" target="sR1aym9AZOEBug6Cj8H3-111" edge="1">
          <mxGeometry relative="1" as="geometry" />
        </mxCell>
        <mxCell id="sR1aym9AZOEBug6Cj8H3-119" value="1..9" style="edgeLabel;html=1;align=center;verticalAlign=middle;resizable=0;points=[];fontSize=20;" parent="sR1aym9AZOEBug6Cj8H3-115" vertex="1" connectable="0">
          <mxGeometry x="0.3291" y="3" relative="1" as="geometry">
            <mxPoint as="offset" />
          </mxGeometry>
        </mxCell>
        <mxCell id="sR1aym9AZOEBug6Cj8H3-117" style="edgeStyle=orthogonalEdgeStyle;rounded=0;orthogonalLoop=1;jettySize=auto;html=1;exitX=0.5;exitY=0;exitDx=0;exitDy=0;entryX=0;entryY=0.5;entryDx=0;entryDy=0;fontSize=20;curved=1;" parent="1" source="sR1aym9AZOEBug6Cj8H3-110" target="sR1aym9AZOEBug6Cj8H3-112" edge="1">
          <mxGeometry relative="1" as="geometry" />
        </mxCell>
        <mxCell id="sR1aym9AZOEBug6Cj8H3-118" value="0" style="edgeLabel;html=1;align=center;verticalAlign=middle;resizable=0;points=[];fontSize=20;" parent="sR1aym9AZOEBug6Cj8H3-117" vertex="1" connectable="0">
          <mxGeometry x="0.3061" y="2" relative="1" as="geometry">
            <mxPoint as="offset" />
          </mxGeometry>
        </mxCell>
        <mxCell id="sR1aym9AZOEBug6Cj8H3-110" value="A22" style="ellipse;whiteSpace=wrap;html=1;aspect=fixed;fontSize=20;" parent="1" vertex="1">
          <mxGeometry x="680" y="770" width="80" height="80" as="geometry" />
        </mxCell>
        <mxCell id="sR1aym9AZOEBug6Cj8H3-123" style="edgeStyle=orthogonalEdgeStyle;rounded=0;orthogonalLoop=1;jettySize=auto;html=1;exitX=1;exitY=0.5;exitDx=0;exitDy=0;entryX=0;entryY=0.5;entryDx=0;entryDy=0;fontSize=20;curved=1;" parent="1" source="sR1aym9AZOEBug6Cj8H3-111" target="sR1aym9AZOEBug6Cj8H3-120" edge="1">
          <mxGeometry relative="1" as="geometry" />
        </mxCell>
        <mxCell id="sR1aym9AZOEBug6Cj8H3-134" value="0..9" style="edgeLabel;html=1;align=center;verticalAlign=middle;resizable=0;points=[];fontSize=20;" parent="sR1aym9AZOEBug6Cj8H3-123" vertex="1" connectable="0">
          <mxGeometry x="-0.0966" y="3" relative="1" as="geometry">
            <mxPoint as="offset" />
          </mxGeometry>
        </mxCell>
        <mxCell id="sR1aym9AZOEBug6Cj8H3-111" value="A26" style="ellipse;whiteSpace=wrap;html=1;aspect=fixed;fontSize=20;" parent="1" vertex="1">
          <mxGeometry x="890" y="890" width="80" height="80" as="geometry" />
        </mxCell>
        <mxCell id="sR1aym9AZOEBug6Cj8H3-122" style="edgeStyle=orthogonalEdgeStyle;rounded=0;orthogonalLoop=1;jettySize=auto;html=1;exitX=1;exitY=0.5;exitDx=0;exitDy=0;entryX=0;entryY=0.5;entryDx=0;entryDy=0;fontSize=20;curved=1;" parent="1" source="sR1aym9AZOEBug6Cj8H3-112" target="sR1aym9AZOEBug6Cj8H3-121" edge="1">
          <mxGeometry relative="1" as="geometry" />
        </mxCell>
        <mxCell id="sR1aym9AZOEBug6Cj8H3-126" value="0" style="edgeLabel;html=1;align=center;verticalAlign=middle;resizable=0;points=[];fontSize=20;" parent="sR1aym9AZOEBug6Cj8H3-122" vertex="1" connectable="0">
          <mxGeometry x="-0.2759" y="1" relative="1" as="geometry">
            <mxPoint as="offset" />
          </mxGeometry>
        </mxCell>
        <mxCell id="sR1aym9AZOEBug6Cj8H3-131" style="edgeStyle=orthogonalEdgeStyle;rounded=0;orthogonalLoop=1;jettySize=auto;html=1;exitX=0.5;exitY=1;exitDx=0;exitDy=0;entryX=0.5;entryY=0;entryDx=0;entryDy=0;fontSize=20;curved=1;" parent="1" source="sR1aym9AZOEBug6Cj8H3-112" target="sR1aym9AZOEBug6Cj8H3-120" edge="1">
          <mxGeometry relative="1" as="geometry" />
        </mxCell>
        <mxCell id="sR1aym9AZOEBug6Cj8H3-142" value="1..9" style="edgeLabel;html=1;align=center;verticalAlign=middle;resizable=0;points=[];fontSize=20;" parent="sR1aym9AZOEBug6Cj8H3-131" vertex="1" connectable="0">
          <mxGeometry x="-0.1555" y="3" relative="1" as="geometry">
            <mxPoint as="offset" />
          </mxGeometry>
        </mxCell>
        <mxCell id="sR1aym9AZOEBug6Cj8H3-112" value="A23" style="ellipse;whiteSpace=wrap;html=1;aspect=fixed;fontSize=20;" parent="1" vertex="1">
          <mxGeometry x="890" y="650" width="80" height="80" as="geometry" />
        </mxCell>
        <mxCell id="sR1aym9AZOEBug6Cj8H3-130" style="edgeStyle=orthogonalEdgeStyle;rounded=0;orthogonalLoop=1;jettySize=auto;html=1;exitX=1;exitY=0.5;exitDx=0;exitDy=0;entryX=0;entryY=0.5;entryDx=0;entryDy=0;fontSize=20;curved=1;" parent="1" source="sR1aym9AZOEBug6Cj8H3-120" target="sR1aym9AZOEBug6Cj8H3-124" edge="1">
          <mxGeometry relative="1" as="geometry" />
        </mxCell>
        <mxCell id="sR1aym9AZOEBug6Cj8H3-135" value="0..9" style="edgeLabel;html=1;align=center;verticalAlign=middle;resizable=0;points=[];fontSize=20;" parent="sR1aym9AZOEBug6Cj8H3-130" vertex="1" connectable="0">
          <mxGeometry x="-0.2483" y="-1" relative="1" as="geometry">
            <mxPoint as="offset" />
          </mxGeometry>
        </mxCell>
        <mxCell id="sR1aym9AZOEBug6Cj8H3-120" value="A27" style="ellipse;whiteSpace=wrap;html=1;aspect=fixed;fontSize=20;" parent="1" vertex="1">
          <mxGeometry x="1070" y="890" width="80" height="80" as="geometry" />
        </mxCell>
        <mxCell id="sR1aym9AZOEBug6Cj8H3-127" style="edgeStyle=orthogonalEdgeStyle;rounded=0;orthogonalLoop=1;jettySize=auto;html=1;exitX=1;exitY=0.5;exitDx=0;exitDy=0;entryX=0;entryY=0.5;entryDx=0;entryDy=0;fontSize=20;curved=1;" parent="1" source="sR1aym9AZOEBug6Cj8H3-121" target="sR1aym9AZOEBug6Cj8H3-125" edge="1">
          <mxGeometry relative="1" as="geometry" />
        </mxCell>
        <mxCell id="sR1aym9AZOEBug6Cj8H3-128" value="0" style="edgeLabel;html=1;align=center;verticalAlign=middle;resizable=0;points=[];fontSize=20;" parent="sR1aym9AZOEBug6Cj8H3-127" vertex="1" connectable="0">
          <mxGeometry x="0.0138" y="2" relative="1" as="geometry">
            <mxPoint as="offset" />
          </mxGeometry>
        </mxCell>
        <mxCell id="sR1aym9AZOEBug6Cj8H3-132" style="edgeStyle=orthogonalEdgeStyle;rounded=0;orthogonalLoop=1;jettySize=auto;html=1;exitX=0.5;exitY=1;exitDx=0;exitDy=0;entryX=0.5;entryY=0;entryDx=0;entryDy=0;fontSize=20;curved=1;" parent="1" source="sR1aym9AZOEBug6Cj8H3-121" target="sR1aym9AZOEBug6Cj8H3-124" edge="1">
          <mxGeometry relative="1" as="geometry" />
        </mxCell>
        <mxCell id="sR1aym9AZOEBug6Cj8H3-133" value="1..9" style="edgeLabel;html=1;align=center;verticalAlign=middle;resizable=0;points=[];fontSize=20;" parent="sR1aym9AZOEBug6Cj8H3-132" vertex="1" connectable="0">
          <mxGeometry x="0.1544" relative="1" as="geometry">
            <mxPoint as="offset" />
          </mxGeometry>
        </mxCell>
        <mxCell id="sR1aym9AZOEBug6Cj8H3-121" value="A24" style="ellipse;whiteSpace=wrap;html=1;aspect=fixed;fontSize=20;" parent="1" vertex="1">
          <mxGeometry x="1070" y="650" width="80" height="80" as="geometry" />
        </mxCell>
        <mxCell id="sR1aym9AZOEBug6Cj8H3-137" style="edgeStyle=orthogonalEdgeStyle;rounded=0;orthogonalLoop=1;jettySize=auto;html=1;exitX=1;exitY=0.5;exitDx=0;exitDy=0;entryX=0.5;entryY=1;entryDx=0;entryDy=0;fontSize=20;curved=1;" parent="1" source="sR1aym9AZOEBug6Cj8H3-124" target="sR1aym9AZOEBug6Cj8H3-3" edge="1">
          <mxGeometry relative="1" as="geometry">
            <mxPoint x="1470" y="830" as="targetPoint" />
          </mxGeometry>
        </mxCell>
        <mxCell id="sR1aym9AZOEBug6Cj8H3-140" value="0..9" style="edgeLabel;html=1;align=center;verticalAlign=middle;resizable=0;points=[];fontSize=20;" parent="sR1aym9AZOEBug6Cj8H3-137" vertex="1" connectable="0">
          <mxGeometry x="-0.5111" relative="1" as="geometry">
            <mxPoint as="offset" />
          </mxGeometry>
        </mxCell>
        <mxCell id="sR1aym9AZOEBug6Cj8H3-124" value="A28" style="ellipse;whiteSpace=wrap;html=1;aspect=fixed;fontSize=20;" parent="1" vertex="1">
          <mxGeometry x="1250" y="890" width="80" height="80" as="geometry" />
        </mxCell>
        <mxCell id="sR1aym9AZOEBug6Cj8H3-138" style="edgeStyle=orthogonalEdgeStyle;rounded=0;orthogonalLoop=1;jettySize=auto;html=1;exitX=1;exitY=0.5;exitDx=0;exitDy=0;entryX=0.5;entryY=0;entryDx=0;entryDy=0;fontSize=20;curved=1;" parent="1" source="sR1aym9AZOEBug6Cj8H3-125" target="sR1aym9AZOEBug6Cj8H3-3" edge="1">
          <mxGeometry relative="1" as="geometry">
            <mxPoint x="1470" y="750" as="targetPoint" />
          </mxGeometry>
        </mxCell>
        <mxCell id="sR1aym9AZOEBug6Cj8H3-139" value="1..9" style="edgeLabel;html=1;align=center;verticalAlign=middle;resizable=0;points=[];fontSize=20;" parent="sR1aym9AZOEBug6Cj8H3-138" vertex="1" connectable="0">
          <mxGeometry x="-0.3848" y="-2" relative="1" as="geometry">
            <mxPoint as="offset" />
          </mxGeometry>
        </mxCell>
        <mxCell id="sR1aym9AZOEBug6Cj8H3-125" value="A25" style="ellipse;whiteSpace=wrap;html=1;aspect=fixed;fontSize=20;" parent="1" vertex="1">
          <mxGeometry x="1250" y="650" width="80" height="80" as="geometry" />
        </mxCell>
        <mxCell id="_vEqqaJpGCyYNX7kdPw2-1" value="" style="endArrow=classic;html=1;rounded=0;entryX=0;entryY=0.5;entryDx=0;entryDy=0;" edge="1" parent="1" target="sR1aym9AZOEBug6Cj8H3-1">
          <mxGeometry width="50" height="50" relative="1" as="geometry">
            <mxPoint x="-820" y="319.65999999999997" as="sourcePoint" />
            <mxPoint x="-770" y="319.65999999999997" as="targetPoint" />
          </mxGeometry>
        </mxCell>
      </root>
    </mxGraphModel>
  </diagram>
  <diagram id="uK8_-B2TXd3SzLC5zuzB" name="01-57">
    <mxGraphModel dx="1500" dy="814" grid="1" gridSize="10" guides="1" tooltips="1" connect="1" arrows="1" fold="1" page="1" pageScale="1" pageWidth="827" pageHeight="1169" math="0" shadow="0">
      <root>
        <mxCell id="0" />
        <mxCell id="1" parent="0" />
        <mxCell id="I06wD_2-Pc1ISAouwfby-9" style="edgeStyle=orthogonalEdgeStyle;rounded=0;orthogonalLoop=1;jettySize=auto;html=1;exitX=0.5;exitY=1;exitDx=0;exitDy=0;entryX=0;entryY=0.5;entryDx=0;entryDy=0;fontSize=20;curved=1;" edge="1" parent="1" source="I06wD_2-Pc1ISAouwfby-1" target="I06wD_2-Pc1ISAouwfby-8">
          <mxGeometry relative="1" as="geometry" />
        </mxCell>
        <mxCell id="I06wD_2-Pc1ISAouwfby-21" value="5" style="edgeLabel;html=1;align=center;verticalAlign=middle;resizable=0;points=[];fontSize=20;" vertex="1" connectable="0" parent="I06wD_2-Pc1ISAouwfby-9">
          <mxGeometry x="0.2985" relative="1" as="geometry">
            <mxPoint as="offset" />
          </mxGeometry>
        </mxCell>
        <mxCell id="I06wD_2-Pc1ISAouwfby-15" style="edgeStyle=orthogonalEdgeStyle;rounded=0;orthogonalLoop=1;jettySize=auto;html=1;exitX=1;exitY=0.5;exitDx=0;exitDy=0;entryX=0;entryY=0.5;entryDx=0;entryDy=0;fontSize=20;curved=1;" edge="1" parent="1" source="I06wD_2-Pc1ISAouwfby-1" target="I06wD_2-Pc1ISAouwfby-4">
          <mxGeometry relative="1" as="geometry" />
        </mxCell>
        <mxCell id="I06wD_2-Pc1ISAouwfby-22" value="1..4" style="edgeLabel;html=1;align=center;verticalAlign=middle;resizable=0;points=[];fontSize=20;" vertex="1" connectable="0" parent="I06wD_2-Pc1ISAouwfby-15">
          <mxGeometry x="-0.3378" relative="1" as="geometry">
            <mxPoint as="offset" />
          </mxGeometry>
        </mxCell>
        <mxCell id="I06wD_2-Pc1ISAouwfby-17" style="edgeStyle=orthogonalEdgeStyle;rounded=0;orthogonalLoop=1;jettySize=auto;html=1;exitX=0.5;exitY=0;exitDx=0;exitDy=0;entryX=0;entryY=0.5;entryDx=0;entryDy=0;fontSize=20;curved=1;" edge="1" parent="1" source="I06wD_2-Pc1ISAouwfby-1" target="I06wD_2-Pc1ISAouwfby-2">
          <mxGeometry relative="1" as="geometry" />
        </mxCell>
        <mxCell id="I06wD_2-Pc1ISAouwfby-20" value="0" style="edgeLabel;html=1;align=center;verticalAlign=middle;resizable=0;points=[];fontSize=20;" vertex="1" connectable="0" parent="I06wD_2-Pc1ISAouwfby-17">
          <mxGeometry x="0.2523" relative="1" as="geometry">
            <mxPoint as="offset" />
          </mxGeometry>
        </mxCell>
        <mxCell id="I06wD_2-Pc1ISAouwfby-1" value="A0" style="ellipse;whiteSpace=wrap;html=1;aspect=fixed;fontSize=20;" vertex="1" parent="1">
          <mxGeometry x="70" y="290" width="80" height="80" as="geometry" />
        </mxCell>
        <mxCell id="I06wD_2-Pc1ISAouwfby-14" style="edgeStyle=orthogonalEdgeStyle;rounded=0;orthogonalLoop=1;jettySize=auto;html=1;exitX=1;exitY=0.5;exitDx=0;exitDy=0;entryX=0.5;entryY=0;entryDx=0;entryDy=0;fontSize=20;curved=1;" edge="1" parent="1" source="I06wD_2-Pc1ISAouwfby-2" target="I06wD_2-Pc1ISAouwfby-6">
          <mxGeometry relative="1" as="geometry">
            <mxPoint x="414" y="160" as="targetPoint" />
          </mxGeometry>
        </mxCell>
        <mxCell id="I06wD_2-Pc1ISAouwfby-25" value="1..9" style="edgeLabel;html=1;align=center;verticalAlign=middle;resizable=0;points=[];fontSize=20;" vertex="1" connectable="0" parent="I06wD_2-Pc1ISAouwfby-14">
          <mxGeometry x="-0.4298" relative="1" as="geometry">
            <mxPoint x="13" y="-10" as="offset" />
          </mxGeometry>
        </mxCell>
        <mxCell id="I06wD_2-Pc1ISAouwfby-2" value="A1" style="ellipse;whiteSpace=wrap;html=1;aspect=fixed;fontSize=20;" vertex="1" parent="1">
          <mxGeometry x="320" y="120" width="80" height="80" as="geometry" />
        </mxCell>
        <mxCell id="I06wD_2-Pc1ISAouwfby-16" style="edgeStyle=orthogonalEdgeStyle;rounded=0;orthogonalLoop=1;jettySize=auto;html=1;exitX=1;exitY=0.5;exitDx=0;exitDy=0;entryX=0;entryY=0.5;entryDx=0;entryDy=0;fontSize=20;curved=1;" edge="1" parent="1" source="I06wD_2-Pc1ISAouwfby-4" target="I06wD_2-Pc1ISAouwfby-6">
          <mxGeometry relative="1" as="geometry">
            <mxPoint x="580" y="330" as="targetPoint" />
          </mxGeometry>
        </mxCell>
        <mxCell id="I06wD_2-Pc1ISAouwfby-23" value="1..9" style="edgeLabel;html=1;align=center;verticalAlign=middle;resizable=0;points=[];fontSize=20;" vertex="1" connectable="0" parent="I06wD_2-Pc1ISAouwfby-16">
          <mxGeometry x="-0.217" y="-2" relative="1" as="geometry">
            <mxPoint x="3" y="-2" as="offset" />
          </mxGeometry>
        </mxCell>
        <mxCell id="I06wD_2-Pc1ISAouwfby-4" value="A3" style="ellipse;whiteSpace=wrap;html=1;aspect=fixed;fontSize=20;" vertex="1" parent="1">
          <mxGeometry x="320" y="290" width="80" height="80" as="geometry" />
        </mxCell>
        <mxCell id="I06wD_2-Pc1ISAouwfby-10" style="edgeStyle=orthogonalEdgeStyle;rounded=0;orthogonalLoop=1;jettySize=auto;html=1;exitX=1;exitY=0.5;exitDx=0;exitDy=0;entryX=0.5;entryY=1;entryDx=0;entryDy=0;fontSize=20;curved=1;" edge="1" parent="1" source="I06wD_2-Pc1ISAouwfby-8" target="I06wD_2-Pc1ISAouwfby-6">
          <mxGeometry relative="1" as="geometry">
            <mxPoint x="414" y="500" as="targetPoint" />
          </mxGeometry>
        </mxCell>
        <mxCell id="I06wD_2-Pc1ISAouwfby-24" value="0..7" style="edgeLabel;html=1;align=center;verticalAlign=middle;resizable=0;points=[];fontSize=20;" vertex="1" connectable="0" parent="I06wD_2-Pc1ISAouwfby-10">
          <mxGeometry x="-0.2596" y="-4" relative="1" as="geometry">
            <mxPoint x="5" y="-4" as="offset" />
          </mxGeometry>
        </mxCell>
        <mxCell id="I06wD_2-Pc1ISAouwfby-8" value="A5" style="ellipse;whiteSpace=wrap;html=1;aspect=fixed;fontSize=20;" vertex="1" parent="1">
          <mxGeometry x="320" y="460" width="80" height="80" as="geometry" />
        </mxCell>
        <mxCell id="I06wD_2-Pc1ISAouwfby-19" value="" style="group;fontSize=20;" vertex="1" connectable="0" parent="1">
          <mxGeometry x="580" y="290" width="80" height="80" as="geometry" />
        </mxCell>
        <mxCell id="I06wD_2-Pc1ISAouwfby-6" value="" style="ellipse;whiteSpace=wrap;html=1;aspect=fixed;fontSize=20;" vertex="1" parent="I06wD_2-Pc1ISAouwfby-19">
          <mxGeometry width="80" height="80" as="geometry" />
        </mxCell>
        <mxCell id="I06wD_2-Pc1ISAouwfby-18" value="A7" style="ellipse;whiteSpace=wrap;html=1;aspect=fixed;fontSize=20;" vertex="1" parent="I06wD_2-Pc1ISAouwfby-19">
          <mxGeometry x="10" y="10" width="60" height="60" as="geometry" />
        </mxCell>
        <mxCell id="jAyL0xteNIGLJj6umZ17-1" value="" style="endArrow=classic;html=1;rounded=0;entryX=0;entryY=0.5;entryDx=0;entryDy=0;" edge="1" parent="1" target="I06wD_2-Pc1ISAouwfby-1">
          <mxGeometry width="50" height="50" relative="1" as="geometry">
            <mxPoint x="20" y="330" as="sourcePoint" />
            <mxPoint y="330" as="targetPoint" />
          </mxGeometry>
        </mxCell>
      </root>
    </mxGraphModel>
  </diagram>
  <diagram id="otgFhhp-jQN1pq7X4Fq_" name="Heure">
    <mxGraphModel dx="2625" dy="1425" grid="1" gridSize="10" guides="1" tooltips="1" connect="1" arrows="1" fold="1" page="1" pageScale="1" pageWidth="827" pageHeight="1169" math="0" shadow="0">
      <root>
        <mxCell id="0" />
        <mxCell id="1" parent="0" />
        <mxCell id="_EIIUzx_8WMTInLtgdaO-21" style="edgeStyle=orthogonalEdgeStyle;rounded=0;orthogonalLoop=1;jettySize=auto;html=1;exitX=0.5;exitY=0;exitDx=0;exitDy=0;entryX=0;entryY=0.5;entryDx=0;entryDy=0;fontSize=20;curved=1;" edge="1" parent="1" source="_EIIUzx_8WMTInLtgdaO-7" target="_EIIUzx_8WMTInLtgdaO-10">
          <mxGeometry relative="1" as="geometry" />
        </mxCell>
        <mxCell id="_EIIUzx_8WMTInLtgdaO-45" value="0 | 1" style="edgeLabel;html=1;align=center;verticalAlign=middle;resizable=0;points=[];fontSize=20;" vertex="1" connectable="0" parent="_EIIUzx_8WMTInLtgdaO-21">
          <mxGeometry x="0.3248" y="-1" relative="1" as="geometry">
            <mxPoint as="offset" />
          </mxGeometry>
        </mxCell>
        <mxCell id="_EIIUzx_8WMTInLtgdaO-24" style="edgeStyle=orthogonalEdgeStyle;rounded=0;orthogonalLoop=1;jettySize=auto;html=1;exitX=0.5;exitY=1;exitDx=0;exitDy=0;entryX=0;entryY=0.5;entryDx=0;entryDy=0;fontSize=20;curved=1;" edge="1" parent="1" source="_EIIUzx_8WMTInLtgdaO-7" target="_EIIUzx_8WMTInLtgdaO-23">
          <mxGeometry relative="1" as="geometry" />
        </mxCell>
        <mxCell id="_EIIUzx_8WMTInLtgdaO-48" value="2" style="edgeLabel;html=1;align=center;verticalAlign=middle;resizable=0;points=[];fontSize=20;" vertex="1" connectable="0" parent="_EIIUzx_8WMTInLtgdaO-24">
          <mxGeometry x="0.42" y="-3" relative="1" as="geometry">
            <mxPoint as="offset" />
          </mxGeometry>
        </mxCell>
        <mxCell id="_EIIUzx_8WMTInLtgdaO-7" value="A0" style="ellipse;whiteSpace=wrap;html=1;aspect=fixed;fontSize=20;" vertex="1" parent="1">
          <mxGeometry x="220" y="280" width="80" height="80" as="geometry" />
        </mxCell>
        <mxCell id="_EIIUzx_8WMTInLtgdaO-43" style="edgeStyle=orthogonalEdgeStyle;rounded=0;orthogonalLoop=1;jettySize=auto;html=1;exitX=1;exitY=0.5;exitDx=0;exitDy=0;entryX=0.5;entryY=0;entryDx=0;entryDy=0;fontSize=20;curved=1;" edge="1" parent="1" source="_EIIUzx_8WMTInLtgdaO-10" target="_EIIUzx_8WMTInLtgdaO-26">
          <mxGeometry relative="1" as="geometry" />
        </mxCell>
        <mxCell id="_EIIUzx_8WMTInLtgdaO-46" value="0..9" style="edgeLabel;html=1;align=center;verticalAlign=middle;resizable=0;points=[];fontSize=20;" vertex="1" connectable="0" parent="_EIIUzx_8WMTInLtgdaO-43">
          <mxGeometry x="-0.4657" y="-4" relative="1" as="geometry">
            <mxPoint as="offset" />
          </mxGeometry>
        </mxCell>
        <mxCell id="_EIIUzx_8WMTInLtgdaO-10" value="A1" style="ellipse;whiteSpace=wrap;html=1;aspect=fixed;fontSize=20;" vertex="1" parent="1">
          <mxGeometry x="410" y="110" width="80" height="80" as="geometry" />
        </mxCell>
        <mxCell id="_EIIUzx_8WMTInLtgdaO-17" value="" style="group;fontSize=20;" vertex="1" connectable="0" parent="1">
          <mxGeometry x="1910" y="280" width="80" height="80" as="geometry" />
        </mxCell>
        <mxCell id="_EIIUzx_8WMTInLtgdaO-18" value="" style="ellipse;whiteSpace=wrap;html=1;aspect=fixed;fontSize=20;" vertex="1" parent="_EIIUzx_8WMTInLtgdaO-17">
          <mxGeometry width="80" height="80" as="geometry" />
        </mxCell>
        <mxCell id="_EIIUzx_8WMTInLtgdaO-19" value="A9" style="ellipse;whiteSpace=wrap;html=1;aspect=fixed;fontSize=20;" vertex="1" parent="_EIIUzx_8WMTInLtgdaO-17">
          <mxGeometry x="10" y="10" width="60" height="60" as="geometry" />
        </mxCell>
        <mxCell id="_EIIUzx_8WMTInLtgdaO-20" value="" style="endArrow=classic;html=1;rounded=0;entryX=0;entryY=0.5;entryDx=0;entryDy=0;fontSize=20;" edge="1" parent="1" target="_EIIUzx_8WMTInLtgdaO-7">
          <mxGeometry width="50" height="50" relative="1" as="geometry">
            <mxPoint x="170" y="320" as="sourcePoint" />
            <mxPoint x="150" y="320" as="targetPoint" />
          </mxGeometry>
        </mxCell>
        <mxCell id="_EIIUzx_8WMTInLtgdaO-44" style="edgeStyle=orthogonalEdgeStyle;rounded=0;orthogonalLoop=1;jettySize=auto;html=1;exitX=1;exitY=0.5;exitDx=0;exitDy=0;entryX=0.5;entryY=1;entryDx=0;entryDy=0;fontSize=20;curved=1;" edge="1" parent="1" source="_EIIUzx_8WMTInLtgdaO-23" target="_EIIUzx_8WMTInLtgdaO-26">
          <mxGeometry relative="1" as="geometry" />
        </mxCell>
        <mxCell id="_EIIUzx_8WMTInLtgdaO-47" value="0..3" style="edgeLabel;html=1;align=center;verticalAlign=middle;resizable=0;points=[];fontSize=20;" vertex="1" connectable="0" parent="_EIIUzx_8WMTInLtgdaO-44">
          <mxGeometry x="-0.5348" y="4" relative="1" as="geometry">
            <mxPoint y="4" as="offset" />
          </mxGeometry>
        </mxCell>
        <mxCell id="_EIIUzx_8WMTInLtgdaO-23" value="A2" style="ellipse;whiteSpace=wrap;html=1;aspect=fixed;fontSize=20;" vertex="1" parent="1">
          <mxGeometry x="410" y="450" width="80" height="80" as="geometry" />
        </mxCell>
        <mxCell id="_EIIUzx_8WMTInLtgdaO-32" style="edgeStyle=orthogonalEdgeStyle;rounded=0;orthogonalLoop=1;jettySize=auto;html=1;exitX=1;exitY=0.5;exitDx=0;exitDy=0;entryX=0;entryY=0.5;entryDx=0;entryDy=0;fontSize=20;curved=1;" edge="1" parent="1" source="_EIIUzx_8WMTInLtgdaO-26" target="_EIIUzx_8WMTInLtgdaO-29">
          <mxGeometry relative="1" as="geometry" />
        </mxCell>
        <mxCell id="_EIIUzx_8WMTInLtgdaO-49" value=":" style="edgeLabel;html=1;align=center;verticalAlign=middle;resizable=0;points=[];fontSize=20;" vertex="1" connectable="0" parent="_EIIUzx_8WMTInLtgdaO-32">
          <mxGeometry x="0.0495" y="3" relative="1" as="geometry">
            <mxPoint as="offset" />
          </mxGeometry>
        </mxCell>
        <mxCell id="_EIIUzx_8WMTInLtgdaO-26" value="A3" style="ellipse;whiteSpace=wrap;html=1;aspect=fixed;fontSize=20;" vertex="1" parent="1">
          <mxGeometry x="590" y="280" width="80" height="80" as="geometry" />
        </mxCell>
        <mxCell id="_EIIUzx_8WMTInLtgdaO-33" style="edgeStyle=orthogonalEdgeStyle;rounded=0;orthogonalLoop=1;jettySize=auto;html=1;exitX=1;exitY=0.5;exitDx=0;exitDy=0;entryX=0;entryY=0.5;entryDx=0;entryDy=0;fontSize=20;curved=1;" edge="1" parent="1" source="_EIIUzx_8WMTInLtgdaO-29" target="_EIIUzx_8WMTInLtgdaO-30">
          <mxGeometry relative="1" as="geometry" />
        </mxCell>
        <mxCell id="_EIIUzx_8WMTInLtgdaO-50" value="0..5" style="edgeLabel;html=1;align=center;verticalAlign=middle;resizable=0;points=[];fontSize=20;" vertex="1" connectable="0" parent="_EIIUzx_8WMTInLtgdaO-33">
          <mxGeometry x="-0.0838" y="-3" relative="1" as="geometry">
            <mxPoint as="offset" />
          </mxGeometry>
        </mxCell>
        <mxCell id="_EIIUzx_8WMTInLtgdaO-29" value="A4" style="ellipse;whiteSpace=wrap;html=1;aspect=fixed;fontSize=20;" vertex="1" parent="1">
          <mxGeometry x="810" y="280" width="80" height="80" as="geometry" />
        </mxCell>
        <mxCell id="_EIIUzx_8WMTInLtgdaO-30" value="A5" style="ellipse;whiteSpace=wrap;html=1;aspect=fixed;fontSize=20;" vertex="1" parent="1">
          <mxGeometry x="1030" y="280" width="80" height="80" as="geometry" />
        </mxCell>
        <mxCell id="_EIIUzx_8WMTInLtgdaO-41" style="edgeStyle=orthogonalEdgeStyle;rounded=0;orthogonalLoop=1;jettySize=auto;html=1;exitX=1;exitY=0.5;exitDx=0;exitDy=0;entryX=0;entryY=0.5;entryDx=0;entryDy=0;fontSize=20;curved=1;" edge="1" parent="1" source="_EIIUzx_8WMTInLtgdaO-34" target="_EIIUzx_8WMTInLtgdaO-37">
          <mxGeometry relative="1" as="geometry" />
        </mxCell>
        <mxCell id="_EIIUzx_8WMTInLtgdaO-52" value=":" style="edgeLabel;html=1;align=center;verticalAlign=middle;resizable=0;points=[];fontSize=20;" vertex="1" connectable="0" parent="_EIIUzx_8WMTInLtgdaO-41">
          <mxGeometry x="-0.2133" y="1" relative="1" as="geometry">
            <mxPoint as="offset" />
          </mxGeometry>
        </mxCell>
        <mxCell id="_EIIUzx_8WMTInLtgdaO-34" value="A6" style="ellipse;whiteSpace=wrap;html=1;aspect=fixed;fontSize=20;" vertex="1" parent="1">
          <mxGeometry x="1250" y="280" width="80" height="80" as="geometry" />
        </mxCell>
        <mxCell id="_EIIUzx_8WMTInLtgdaO-35" style="edgeStyle=orthogonalEdgeStyle;rounded=0;orthogonalLoop=1;jettySize=auto;html=1;exitX=1;exitY=0.5;exitDx=0;exitDy=0;entryX=0;entryY=0.5;entryDx=0;entryDy=0;fontSize=20;curved=1;" edge="1" parent="1" source="_EIIUzx_8WMTInLtgdaO-30" target="_EIIUzx_8WMTInLtgdaO-34">
          <mxGeometry relative="1" as="geometry">
            <mxPoint x="1110" y="319.5" as="sourcePoint" />
            <mxPoint x="1250" y="319.5" as="targetPoint" />
          </mxGeometry>
        </mxCell>
        <mxCell id="_EIIUzx_8WMTInLtgdaO-51" value="0..9" style="edgeLabel;html=1;align=center;verticalAlign=middle;resizable=0;points=[];fontSize=20;" vertex="1" connectable="0" parent="_EIIUzx_8WMTInLtgdaO-35">
          <mxGeometry x="-0.1562" y="-1" relative="1" as="geometry">
            <mxPoint as="offset" />
          </mxGeometry>
        </mxCell>
        <mxCell id="_EIIUzx_8WMTInLtgdaO-36" style="edgeStyle=orthogonalEdgeStyle;rounded=0;orthogonalLoop=1;jettySize=auto;html=1;exitX=1;exitY=0.5;exitDx=0;exitDy=0;entryX=0;entryY=0.5;entryDx=0;entryDy=0;fontSize=20;curved=1;" edge="1" parent="1" source="_EIIUzx_8WMTInLtgdaO-37" target="_EIIUzx_8WMTInLtgdaO-38">
          <mxGeometry relative="1" as="geometry" />
        </mxCell>
        <mxCell id="_EIIUzx_8WMTInLtgdaO-53" value="0..5" style="edgeLabel;html=1;align=center;verticalAlign=middle;resizable=0;points=[];fontSize=20;" vertex="1" connectable="0" parent="_EIIUzx_8WMTInLtgdaO-36">
          <mxGeometry x="-0.061" y="-2" relative="1" as="geometry">
            <mxPoint as="offset" />
          </mxGeometry>
        </mxCell>
        <mxCell id="_EIIUzx_8WMTInLtgdaO-37" value="A7" style="ellipse;whiteSpace=wrap;html=1;aspect=fixed;fontSize=20;" vertex="1" parent="1">
          <mxGeometry x="1470" y="280" width="80" height="80" as="geometry" />
        </mxCell>
        <mxCell id="_EIIUzx_8WMTInLtgdaO-38" value="A8" style="ellipse;whiteSpace=wrap;html=1;aspect=fixed;fontSize=20;" vertex="1" parent="1">
          <mxGeometry x="1690" y="280" width="80" height="80" as="geometry" />
        </mxCell>
        <mxCell id="_EIIUzx_8WMTInLtgdaO-40" style="edgeStyle=orthogonalEdgeStyle;rounded=0;orthogonalLoop=1;jettySize=auto;html=1;exitX=1;exitY=0.5;exitDx=0;exitDy=0;entryX=0;entryY=0.5;entryDx=0;entryDy=0;fontSize=20;curved=1;" edge="1" parent="1" source="_EIIUzx_8WMTInLtgdaO-38" target="_EIIUzx_8WMTInLtgdaO-18">
          <mxGeometry relative="1" as="geometry">
            <mxPoint x="1770" y="319.5" as="sourcePoint" />
            <mxPoint x="1910" y="320" as="targetPoint" />
          </mxGeometry>
        </mxCell>
        <mxCell id="_EIIUzx_8WMTInLtgdaO-54" value="0..9" style="edgeLabel;html=1;align=center;verticalAlign=middle;resizable=0;points=[];fontSize=20;" vertex="1" connectable="0" parent="_EIIUzx_8WMTInLtgdaO-40">
          <mxGeometry x="-0.1752" y="3" relative="1" as="geometry">
            <mxPoint as="offset" />
          </mxGeometry>
        </mxCell>
      </root>
    </mxGraphModel>
  </diagram>
  <diagram id="Z4IMhUxkiOIYwX43p-xV" name="structure_delta_exemp">
    <mxGraphModel dx="1050" dy="570" grid="1" gridSize="10" guides="1" tooltips="1" connect="1" arrows="1" fold="1" page="1" pageScale="1" pageWidth="827" pageHeight="1169" math="0" shadow="0">
      <root>
        <mxCell id="0" />
        <mxCell id="1" parent="0" />
        <mxCell id="DrLTqh2Xyhd4kShcFBul-1" style="edgeStyle=orthogonalEdgeStyle;rounded=0;orthogonalLoop=1;jettySize=auto;html=1;exitX=1;exitY=0.5;exitDx=0;exitDy=0;entryX=0;entryY=0.5;entryDx=0;entryDy=0;" edge="1" parent="1" source="DrLTqh2Xyhd4kShcFBul-3" target="DrLTqh2Xyhd4kShcFBul-4">
          <mxGeometry relative="1" as="geometry">
            <Array as="points">
              <mxPoint x="180" y="50" />
              <mxPoint x="180" y="50" />
            </Array>
          </mxGeometry>
        </mxCell>
        <mxCell id="DrLTqh2Xyhd4kShcFBul-2" value="c" style="edgeLabel;html=1;align=center;verticalAlign=middle;resizable=0;points=[];fontSize=20;" vertex="1" connectable="0" parent="DrLTqh2Xyhd4kShcFBul-1">
          <mxGeometry x="0.1043" y="-1" relative="1" as="geometry">
            <mxPoint x="-10" y="-21" as="offset" />
          </mxGeometry>
        </mxCell>
        <mxCell id="DrLTqh2Xyhd4kShcFBul-3" value="A0" style="ellipse;whiteSpace=wrap;html=1;aspect=fixed;fontSize=20;" vertex="1" parent="1">
          <mxGeometry x="10" y="10" width="80" height="80" as="geometry" />
        </mxCell>
        <mxCell id="DrLTqh2Xyhd4kShcFBul-4" value="A1" style="ellipse;whiteSpace=wrap;html=1;aspect=fixed;fontSize=20;" vertex="1" parent="1">
          <mxGeometry x="254" y="10" width="80" height="80" as="geometry" />
        </mxCell>
      </root>
    </mxGraphModel>
  </diagram>
  <diagram id="WTlJ5xnuqX88-liGPYaP" name="structure_delta_expli">
    <mxGraphModel dx="724" dy="393" grid="1" gridSize="10" guides="1" tooltips="1" connect="1" arrows="1" fold="1" page="1" pageScale="1" pageWidth="827" pageHeight="1169" math="0" shadow="0">
      <root>
        <mxCell id="0" />
        <mxCell id="1" parent="0" />
        <mxCell id="CiSsT1ODFsTctb7CxaNW-1" value="" style="rounded=0;whiteSpace=wrap;html=1;fontSize=20;" vertex="1" parent="1">
          <mxGeometry x="10" y="10" width="320" height="90" as="geometry" />
        </mxCell>
        <mxCell id="CiSsT1ODFsTctb7CxaNW-2" value="" style="rounded=0;whiteSpace=wrap;html=1;fontSize=20;" vertex="1" parent="1">
          <mxGeometry x="120" y="20" width="200" height="70" as="geometry" />
        </mxCell>
        <mxCell id="CiSsT1ODFsTctb7CxaNW-6" style="edgeStyle=orthogonalEdgeStyle;rounded=0;orthogonalLoop=1;jettySize=auto;html=1;exitX=1;exitY=0.5;exitDx=0;exitDy=0;entryX=0;entryY=0.5;entryDx=0;entryDy=0;fontSize=20;" edge="1" parent="1" source="CiSsT1ODFsTctb7CxaNW-3" target="CiSsT1ODFsTctb7CxaNW-2">
          <mxGeometry relative="1" as="geometry" />
        </mxCell>
        <mxCell id="CiSsT1ODFsTctb7CxaNW-3" value="A0" style="text;html=1;strokeColor=none;fillColor=none;align=center;verticalAlign=middle;whiteSpace=wrap;rounded=0;fontSize=20;" vertex="1" parent="1">
          <mxGeometry x="20" y="20" width="60" height="70" as="geometry" />
        </mxCell>
        <mxCell id="CiSsT1ODFsTctb7CxaNW-8" style="edgeStyle=orthogonalEdgeStyle;rounded=0;orthogonalLoop=1;jettySize=auto;html=1;exitX=1;exitY=0.5;exitDx=0;exitDy=0;entryX=0;entryY=0.5;entryDx=0;entryDy=0;fontSize=20;" edge="1" parent="1" source="CiSsT1ODFsTctb7CxaNW-4" target="CiSsT1ODFsTctb7CxaNW-5">
          <mxGeometry relative="1" as="geometry" />
        </mxCell>
        <mxCell id="CiSsT1ODFsTctb7CxaNW-4" value="&#39;c&#39;" style="text;html=1;strokeColor=none;fillColor=none;align=center;verticalAlign=middle;whiteSpace=wrap;rounded=0;fontSize=20;" vertex="1" parent="1">
          <mxGeometry x="130" y="40" width="60" height="30" as="geometry" />
        </mxCell>
        <mxCell id="CiSsT1ODFsTctb7CxaNW-5" value="A1" style="text;html=1;strokeColor=none;fillColor=none;align=center;verticalAlign=middle;whiteSpace=wrap;rounded=0;fontSize=20;" vertex="1" parent="1">
          <mxGeometry x="250" y="40" width="60" height="30" as="geometry" />
        </mxCell>
        <mxCell id="JEz_T0mMb5j0V2UP72lu-2" value="Clé 1" style="shape=note;strokeWidth=2;fontSize=14;size=20;whiteSpace=wrap;html=1;fillColor=#fff2cc;strokeColor=#d6b656;fontColor=#666600;" vertex="1" parent="1">
          <mxGeometry x="23" y="120" width="50" height="60" as="geometry" />
        </mxCell>
        <mxCell id="JEz_T0mMb5j0V2UP72lu-4" value="Valeur 2" style="shape=note;strokeWidth=2;fontSize=14;size=20;whiteSpace=wrap;html=1;fillColor=#fff2cc;strokeColor=#d6b656;fontColor=#666600;" vertex="1" parent="1">
          <mxGeometry x="240" y="200" width="80" height="60" as="geometry" />
        </mxCell>
        <mxCell id="JEz_T0mMb5j0V2UP72lu-5" value="" style="endArrow=none;dashed=1;html=1;dashPattern=1 3;strokeWidth=2;rounded=0;entryX=0.476;entryY=1.052;entryDx=0;entryDy=0;entryPerimeter=0;exitX=0.5;exitY=0;exitDx=0;exitDy=0;exitPerimeter=0;" edge="1" parent="1" source="JEz_T0mMb5j0V2UP72lu-2" target="CiSsT1ODFsTctb7CxaNW-3">
          <mxGeometry width="50" height="50" relative="1" as="geometry">
            <mxPoint x="30" y="260" as="sourcePoint" />
            <mxPoint x="80" y="210" as="targetPoint" />
          </mxGeometry>
        </mxCell>
        <mxCell id="JEz_T0mMb5j0V2UP72lu-6" value="" style="endArrow=none;dashed=1;html=1;dashPattern=1 3;strokeWidth=2;rounded=0;entryX=0.5;entryY=1;entryDx=0;entryDy=0;exitX=0.5;exitY=0;exitDx=0;exitDy=0;exitPerimeter=0;" edge="1" parent="1" source="JEz_T0mMb5j0V2UP72lu-4" target="CiSsT1ODFsTctb7CxaNW-5">
          <mxGeometry width="50" height="50" relative="1" as="geometry">
            <mxPoint x="70" y="270" as="sourcePoint" />
            <mxPoint x="120" y="220" as="targetPoint" />
          </mxGeometry>
        </mxCell>
        <mxCell id="JEz_T0mMb5j0V2UP72lu-8" value="Valeur 1" style="shape=note;strokeWidth=2;fontSize=14;size=20;whiteSpace=wrap;html=1;fillColor=#fff2cc;strokeColor=#d6b656;fontColor=#666600;" vertex="1" parent="1">
          <mxGeometry x="180" y="120" width="80" height="60" as="geometry" />
        </mxCell>
        <mxCell id="JEz_T0mMb5j0V2UP72lu-9" value="Clé 2" style="shape=note;strokeWidth=2;fontSize=14;size=20;whiteSpace=wrap;html=1;fillColor=#fff2cc;strokeColor=#d6b656;fontColor=#666600;" vertex="1" parent="1">
          <mxGeometry x="135" y="200" width="50" height="60" as="geometry" />
        </mxCell>
        <mxCell id="JEz_T0mMb5j0V2UP72lu-10" value="" style="endArrow=none;dashed=1;html=1;dashPattern=1 3;strokeWidth=2;rounded=0;entryX=0.5;entryY=1;entryDx=0;entryDy=0;exitX=0.5;exitY=0;exitDx=0;exitDy=0;exitPerimeter=0;" edge="1" parent="1" source="JEz_T0mMb5j0V2UP72lu-9" target="CiSsT1ODFsTctb7CxaNW-4">
          <mxGeometry width="50" height="50" relative="1" as="geometry">
            <mxPoint x="120" y="200" as="sourcePoint" />
            <mxPoint x="170" y="150" as="targetPoint" />
          </mxGeometry>
        </mxCell>
        <mxCell id="JEz_T0mMb5j0V2UP72lu-11" value="" style="endArrow=none;dashed=1;html=1;dashPattern=1 3;strokeWidth=2;rounded=0;entryX=0.5;entryY=1;entryDx=0;entryDy=0;exitX=0.5;exitY=0;exitDx=0;exitDy=0;exitPerimeter=0;" edge="1" parent="1" source="JEz_T0mMb5j0V2UP72lu-8" target="CiSsT1ODFsTctb7CxaNW-2">
          <mxGeometry width="50" height="50" relative="1" as="geometry">
            <mxPoint x="58" y="130" as="sourcePoint" />
            <mxPoint x="59" y="104" as="targetPoint" />
          </mxGeometry>
        </mxCell>
      </root>
    </mxGraphModel>
  </diagram>
</mxfile>
